<mxfile host="app.diagrams.net" modified="2020-04-20T16:06:51.585Z" agent="5.0 (X11)" etag="yXhIInTFhNzKX4gOzTqM" version="12.9.12" type="github">
  <diagram id="ECPDqdnc7cHBjmwrn0tu" name="Page-1">
    <mxGraphModel dx="2020" dy="1723" grid="1" gridSize="10" guides="1" tooltips="1" connect="1" arrows="1" fold="1" page="1" pageScale="1" pageWidth="850" pageHeight="1100" math="0" shadow="0">
      <root>
        <mxCell id="0" />
        <mxCell id="1" parent="0" />
        <mxCell id="IdGF0xGDb7yDM2XSlmW7-31" value="" style="rounded=1;whiteSpace=wrap;html=1;align=left;" parent="1" vertex="1">
          <mxGeometry x="-150" y="-87" width="990" height="557" as="geometry" />
        </mxCell>
        <mxCell id="IdGF0xGDb7yDM2XSlmW7-15" value="Sharepoint online" style="rounded=1;whiteSpace=wrap;html=1;align=left;verticalAlign=top;spacing=7;" parent="1" vertex="1">
          <mxGeometry x="470" y="-50" width="240" height="170" as="geometry" />
        </mxCell>
        <mxCell id="IdGF0xGDb7yDM2XSlmW7-13" value="" style="rounded=1;whiteSpace=wrap;html=1;" parent="1" vertex="1">
          <mxGeometry y="70" width="420" height="384.25" as="geometry" />
        </mxCell>
        <mxCell id="IdGF0xGDb7yDM2XSlmW7-1" value="vpc" style="rounded=1;whiteSpace=wrap;html=1;fillColor=none;verticalAlign=top;align=left;spacing=6;dashed=1;" parent="1" vertex="1">
          <mxGeometry x="30" y="126" width="370" height="150" as="geometry" />
        </mxCell>
        <mxCell id="IdGF0xGDb7yDM2XSlmW7-5" value="RDP" style="edgeStyle=orthogonalEdgeStyle;rounded=0;orthogonalLoop=1;jettySize=auto;html=1;" parent="1" source="IdGF0xGDb7yDM2XSlmW7-3" target="IdGF0xGDb7yDM2XSlmW7-4" edge="1">
          <mxGeometry relative="1" as="geometry" />
        </mxCell>
        <mxCell id="IdGF0xGDb7yDM2XSlmW7-3" value="Bastion" style="outlineConnect=0;dashed=0;verticalLabelPosition=bottom;verticalAlign=top;align=center;html=1;shape=mxgraph.aws3.ec2;fillColor=#F58534;gradientColor=none;" parent="1" vertex="1">
          <mxGeometry x="60" y="160" width="76.5" height="93" as="geometry" />
        </mxCell>
        <mxCell id="IdGF0xGDb7yDM2XSlmW7-9" style="edgeStyle=orthogonalEdgeStyle;rounded=0;orthogonalLoop=1;jettySize=auto;html=1;" parent="1" source="IdGF0xGDb7yDM2XSlmW7-4" target="IdGF0xGDb7yDM2XSlmW7-8" edge="1">
          <mxGeometry relative="1" as="geometry" />
        </mxCell>
        <mxCell id="IdGF0xGDb7yDM2XSlmW7-16" style="edgeStyle=orthogonalEdgeStyle;rounded=0;orthogonalLoop=1;jettySize=auto;html=1;entryX=0.5;entryY=1;entryDx=0;entryDy=0;" parent="1" source="IdGF0xGDb7yDM2XSlmW7-4" target="IdGF0xGDb7yDM2XSlmW7-24" edge="1">
          <mxGeometry relative="1" as="geometry">
            <Array as="points">
              <mxPoint x="541" y="207" />
            </Array>
          </mxGeometry>
        </mxCell>
        <mxCell id="IdGF0xGDb7yDM2XSlmW7-4" value="" style="outlineConnect=0;dashed=0;verticalLabelPosition=bottom;verticalAlign=top;align=center;html=1;shape=mxgraph.aws3.ec2;fillColor=#F58534;gradientColor=none;" parent="1" vertex="1">
          <mxGeometry x="260" y="160" width="76.5" height="93" as="geometry" />
        </mxCell>
        <mxCell id="IdGF0xGDb7yDM2XSlmW7-7" style="edgeStyle=orthogonalEdgeStyle;rounded=0;orthogonalLoop=1;jettySize=auto;html=1;" parent="1" source="IdGF0xGDb7yDM2XSlmW7-6" target="IdGF0xGDb7yDM2XSlmW7-3" edge="1">
          <mxGeometry relative="1" as="geometry" />
        </mxCell>
        <mxCell id="IdGF0xGDb7yDM2XSlmW7-6" value="AdministraciÃ³n" style="fontColor=#000000;verticalAlign=top;verticalLabelPosition=bottom;labelPosition=center;align=center;html=1;outlineConnect=0;fillColor=#CCCCCC;strokeColor=#6881B3;gradientColor=none;gradientDirection=north;strokeWidth=2;shape=mxgraph.networks.pc;" parent="1" vertex="1">
          <mxGeometry x="-100" y="176" width="70" height="61.5" as="geometry" />
        </mxCell>
        <mxCell id="IdGF0xGDb7yDM2XSlmW7-8" value="Vpc-Landing-Zone" style="outlineConnect=0;dashed=0;verticalLabelPosition=bottom;verticalAlign=top;align=center;html=1;shape=mxgraph.aws3.vpc_peering;fillColor=#F58534;gradientColor=none;" parent="1" vertex="1">
          <mxGeometry x="264" y="308" width="69" height="72" as="geometry" />
        </mxCell>
        <mxCell id="IdGF0xGDb7yDM2XSlmW7-10" value="" style="shape=mxgraph.signs.travel.bank;html=1;fillColor=#000000;strokeColor=none;verticalLabelPosition=bottom;verticalAlign=top;align=center;" parent="1" vertex="1">
          <mxGeometry x="670" y="300.5" width="99" height="86" as="geometry" />
        </mxCell>
        <mxCell id="OwxsT6g48_Clc__AVW-o-4" style="edgeStyle=orthogonalEdgeStyle;rounded=0;orthogonalLoop=1;jettySize=auto;html=1;entryX=1;entryY=0.5;entryDx=0;entryDy=0;entryPerimeter=0;fontColor=#000000;" edge="1" parent="1" source="IdGF0xGDb7yDM2XSlmW7-21" target="IdGF0xGDb7yDM2XSlmW7-8">
          <mxGeometry relative="1" as="geometry" />
        </mxCell>
        <mxCell id="IdGF0xGDb7yDM2XSlmW7-21" value="Firewall" style="aspect=fixed;html=1;points=[];align=center;image;fontSize=12;image=img/lib/mscae/Azure_Firewall.svg;" parent="1" vertex="1">
          <mxGeometry x="490" y="280" width="127" height="127" as="geometry" />
        </mxCell>
        <mxCell id="IdGF0xGDb7yDM2XSlmW7-22" style="edgeStyle=orthogonalEdgeStyle;rounded=0;orthogonalLoop=1;jettySize=auto;html=1;" parent="1" source="IdGF0xGDb7yDM2XSlmW7-10" target="IdGF0xGDb7yDM2XSlmW7-21" edge="1">
          <mxGeometry relative="1" as="geometry">
            <mxPoint x="400" y="337" as="sourcePoint" />
            <mxPoint x="203" y="337" as="targetPoint" />
            <Array as="points" />
          </mxGeometry>
        </mxCell>
        <mxCell id="IdGF0xGDb7yDM2XSlmW7-24" value="" style="shape=image;html=1;verticalAlign=top;verticalLabelPosition=bottom;labelBackgroundColor=#ffffff;imageAspect=0;aspect=fixed;image=https://cdn4.iconfinder.com/data/icons/logos-3/504/SharePoint-128.png;dashed=1;fillColor=none;fontColor=#000000;align=left;" parent="1" vertex="1">
          <mxGeometry x="476.5" y="-20" width="128" height="128" as="geometry" />
        </mxCell>
        <mxCell id="IdGF0xGDb7yDM2XSlmW7-26" value="" style="pointerEvents=1;shadow=0;dashed=0;html=1;strokeColor=none;labelPosition=center;verticalLabelPosition=bottom;verticalAlign=top;outlineConnect=0;align=center;shape=mxgraph.office.concepts.folder;fillColor=#CCCBCB;fontColor=#000000;" parent="1" vertex="1">
          <mxGeometry x="630" y="39.25" width="50" height="45" as="geometry" />
        </mxCell>
        <mxCell id="IdGF0xGDb7yDM2XSlmW7-27" value="" style="pointerEvents=1;shadow=0;dashed=0;html=1;strokeColor=none;labelPosition=center;verticalLabelPosition=bottom;verticalAlign=top;outlineConnect=0;align=center;shape=mxgraph.office.concepts.folder;fillColor=#CCCBCB;fontColor=#000000;" parent="1" vertex="1">
          <mxGeometry x="630" y="-12.25" width="50" height="45" as="geometry" />
        </mxCell>
        <mxCell id="IdGF0xGDb7yDM2XSlmW7-28" value="" style="rounded=1;whiteSpace=wrap;html=1;dashed=1;fillColor=none;fontColor=#000000;align=left;" parent="1" vertex="1">
          <mxGeometry x="617" y="-27" width="73" height="127" as="geometry" />
        </mxCell>
        <mxCell id="OwxsT6g48_Clc__AVW-o-1" value="Escenario 1" style="text;html=1;strokeColor=#6c8ebf;fillColor=#dae8fc;align=center;verticalAlign=middle;whiteSpace=wrap;rounded=0;" vertex="1" parent="1">
          <mxGeometry x="-85" y="-70" width="105" height="20" as="geometry" />
        </mxCell>
      </root>
    </mxGraphModel>
  </diagram>
</mxfile>
